<svg width="67" height="117" viewBox="0 0 67 117" fill="none" xmlns="http://www.w3.org/2000/svg">
<path d="M15.2899 116.064L13.8398 114.977C13.428 114.669 13.0507 114.36 12.7051 114.052L9.97198 114.628L5.97454 109.5L5.73262 109.02H5.73407C5.73407 109.02 5.076 107.778 3.84192 106.389L2.75471 105.165L2.09232 100.528C1.73376 98.5709 1.95118 96.732 2.64814 95.2229L0 89.928V84.6072C0 83.0506 0.603363 81.3355 1.79424 79.4894V72.6624H6.43535L9.42047 66.1493V64.7525L10.044 61.7933L8.07552 57.8563V48.2126L10.7669 40.8125V34.4606L14.2358 33.1113C15.4886 32.6246 18.4781 31.4669 19.2024 31.2264C19.9829 30.9658 20.8382 30.8491 21.9715 30.8491C22.7866 30.8491 23.6376 30.911 24.0797 30.9485H26.2281C27.0057 30.325 27.8194 29.641 28.2845 29.1787C29.6971 27.7661 31.5849 26.987 33.6009 26.987C33.9537 26.987 34.2965 27.0115 34.6248 27.0533L35.7926 23.688L37.2312 19.9138V18.0619L42.3245 7.86674L44.1821 9.99215V5.49936L48.1536 3.11761L50.4907 0H58.068L61.7141 9.48384C62.4139 11.4984 63.625 15.0235 63.8726 16.0128C63.9965 16.5082 64.2039 17.3361 64.8576 27.6494L66.7469 31.8053L64.0339 36.3283V45.8755L58.0651 45.6912L57.6475 46.0815L59.0054 50.3223L49.0666 74.0794L44.303 86.4173L41.3064 99.7906L35.545 110.216L31.2826 112.91L25.4218 113.829L21.4459 116.065H15.2899V116.064Z" fill="#FBDFCB"/>
<path d="M58.5923 17.3262C58.3676 16.4291 56.5734 11.271 56.5734 11.271L54.3313 5.44043H53.2095L51.8646 7.23467L49.6211 8.57962V11.7188C49.6211 11.7188 52.0878 13.9609 51.4153 14.6348C50.7428 15.3073 50.9675 16.6537 49.6211 17.1015C48.2761 17.5494 45.1355 19.3436 45.1355 19.3436L43.5659 17.5494L42.6687 19.3436V20.9132L40.8745 25.6235L38.8556 31.454L35.4918 33.0236C35.4918 33.0236 33.4729 31.6787 32.128 33.0236C30.783 34.3686 28.0916 36.3875 28.0916 36.3875H23.8306C23.8306 36.3875 21.5886 36.1628 20.9147 36.3875C20.2422 36.6121 16.2044 38.1817 16.2044 38.1817V41.7702L13.5131 49.1718V56.5734L15.7551 61.059L14.858 65.3199V67.3388L9.92459 78.1043H7.23321V81.2435C7.23321 81.2435 5.43896 83.4855 5.43896 84.6073C5.43896 85.7291 5.43896 88.6436 5.43896 88.6436L7.68105 93.1292L8.8028 95.1481C8.8028 95.1481 9.25067 96.4931 8.13035 96.9424C7.00859 97.3902 7.45786 99.6337 7.45786 99.6337L7.9057 102.773C9.69994 104.792 10.597 106.586 10.597 106.586L12.1667 108.605C12.1667 108.605 15.3073 107.932 15.3073 108.605C15.3073 109.277 17.1015 110.624 17.1015 110.624H20.0176L23.606 108.605L29.3257 107.708L31.4569 106.361L36.1672 97.8395L39.0831 84.8319L44.0166 72.0476L53.211 50.0689L51.4167 44.4615L55.0052 41.0977V36.6121C55.0052 36.6121 55.4531 34.1454 55.0052 33.2482C54.5574 32.3511 55.204 31.6786 55.204 31.6786L56.7995 33.2482L58.5937 36.1643V34.8193L60.6126 31.4554L59.4908 28.9887C59.4908 28.9887 58.8169 18.2233 58.5923 17.3262Z" fill="#FAB98E"/>
</svg>
