<svg width="567" height="260" viewBox="0 0 567 260" fill="none" xmlns="http://www.w3.org/2000/svg">
<path d="M65.7605 -30.5096L67.212 -11.2179C67.212 -11.2179 64.7943 -3.7976 64.3104 -1.32512C63.8266 1.1488 58.9896 1.64272 56.5718 1.64272C54.1541 1.64272 46.8979 -0.335838 45.4478 -0.82976C43.9963 -1.32512 32.3885 -1.81904 30.937 -1.81904C29.4854 -1.81904 19.813 -3.7976 19.813 -3.7976H11.5906L4.33296 4.612C4.33296 4.612 4.8168 15.9894 5.30064 17.4741C5.78448 18.9573 0 33.9765 0 33.9765L3.36529 51.1125L17.2742 59.103L29.4451 65.3843L40.4381 64.9912L49.86 59.1016L63.8266 52.1003L65.7605 43.6907L73.0152 30.8286L82.2053 24.893L93.3293 18.9573C93.3293 18.9573 94.297 10.0538 94.297 8.56912C94.297 7.08448 102.519 3.62272 102.519 3.62272C102.519 3.62272 115.579 4.612 122.35 4.612C129.12 4.612 128.154 1.64416 128.154 1.64416C128.154 1.64416 130.088 -4.29152 130.088 -5.77616C130.088 -7.2608 136.859 -10.7226 136.859 -10.7226L145.565 -9.73328C145.565 -9.73328 150.886 -2.31296 151.854 -0.334398C152.821 1.64416 154.755 7.08592 155.723 9.06448C156.691 11.043 173.136 18.4634 173.136 18.4634L180.874 27.3669L189.144 34.1205C189.144 34.1205 188.702 39.545 188.702 42.5128C188.702 45.4806 184.743 48.6371 184.743 48.6371L190.469 48.2541C190.469 48.2541 195.327 39.1907 195.327 37.2122C195.327 35.2336 202.156 37.755 202.156 37.755L206.993 33.3026L201.188 29.3454C201.188 29.3454 192.482 23.4098 189.096 21.9251C185.711 20.4405 187.645 14.0109 186.679 12.0309C185.711 10.0523 166.365 -6.76688 166.365 -6.76688L161.044 -17.649L179.424 -16.1643L211.83 11.537C211.83 11.537 209.412 10.5477 216.183 14.5048C222.954 18.4619 216.183 14.5048 218.118 20.4405C220.054 26.3762 218.118 20.4405 219.086 33.3011C220.054 46.1618 222.471 39.2368 222.471 39.2368L227.308 44.1832L234.563 51.1082L242.302 52.0974L248.589 48.6342V43.6878L245.203 39.7307C245.203 39.7307 240.366 34.7843 239.882 32.8058C239.399 30.8272 239.882 30.3318 239.882 30.3318L240.85 27.364L246.171 23.4069L254.393 19.9437L263.583 20.933L270.354 28.3533C270.354 28.3533 272.29 32.8058 272.29 34.289C272.29 35.7736 271.806 36.7629 271.806 36.7629L270.354 47.151C270.354 47.151 270.838 51.1082 270.838 52.5928C270.838 54.0774 273.257 55.5606 273.257 55.5606C273.257 55.5606 282.931 56.5499 284.381 56.5499C285.833 56.5499 297.441 61.0024 297.441 61.0024L303.245 64.4656L306.631 67.9288C306.631 67.9288 306.631 67.9288 307.115 72.8752C307.598 77.8216 307.115 72.8752 309.05 75.843C310.985 78.8109 315.338 77.8216 315.338 77.8216L317.274 74.3584L321.627 69.412L324.529 61.9917H330.816C330.816 61.9917 332.751 61.9917 336.62 65.9488C340.489 69.9059 335.652 71.8845 335.652 73.863C335.652 75.8416 335.169 81.7773 335.169 86.2298C335.169 90.6822 327.43 93.6501 327.43 93.6501L316.165 103.456L313.546 111.742L318.479 124.452L316.237 138.506L331.687 140.084L345.326 151.527L361.771 179.723L364.673 197.036L382.085 206.435C382.085 206.435 392.243 218.802 392.243 220.781C392.243 222.759 399.498 242.546 399.498 244.029C399.498 245.512 399.498 257.385 399.498 257.385L405.786 259.364C405.786 259.364 431.421 252.439 433.357 252.439C435.29 252.439 450.285 243.04 450.285 243.04C450.285 243.04 460.443 236.115 462.377 235.62C464.312 235.126 485.11 226.221 488.496 224.242C491.881 222.264 500.103 216.328 501.555 214.349C503.006 212.371 502.523 204.951 501.071 201.983C499.62 199.015 517.032 188.131 517.032 188.131L515.581 179.722L506.39 173.291L495.266 170.817C495.266 170.817 494.299 163.396 493.815 159.935C493.331 156.472 489.946 155.978 489.946 155.978C489.946 155.978 484.625 159.441 483.659 160.924C482.691 162.409 480.273 172.301 480.273 172.301C480.273 172.301 470.599 173.291 465.28 173.291C459.96 173.291 460.443 172.795 458.509 172.301C456.574 171.806 448.835 153.999 446.901 153.01C444.966 152.02 434.326 138.664 429.489 134.212C424.652 129.76 426.587 120.361 426.587 120.361V115.414C426.587 115.414 433.842 115.414 435.777 115.414C437.713 115.414 445.935 118.382 447.869 118.382C449.804 118.382 449.804 125.307 449.804 126.792C449.804 128.276 459.962 136.684 459.962 136.684L468.668 144.599L485.113 149.051L486.081 145.588H495.755L503.009 150.04L515.585 158.45C515.585 158.45 534.931 161.418 538.802 161.418C542.671 161.418 570.24 159.933 570.24 159.933L571.699 161.922V-32H62.3275L65.7605 -30.5096Z" fill="#DDE5DA"/>
</svg>
