<svg width="355" height="308" viewBox="0 0 355 308" fill="none" xmlns="http://www.w3.org/2000/svg">
<g opacity="0.07">
<path d="M158.838 304.813L192.699 112.776" stroke="#98CC6B" stroke-width="22.75" stroke-linecap="round" stroke-linejoin="round"/>
<path d="M181.403 161.293C182.663 171.989 171.851 179.56 162.231 174.717C146.04 166.567 135.906 152.094 133.785 134.092C132.525 123.397 143.337 115.826 152.957 120.668C169.147 128.818 179.281 143.292 181.403 161.293Z" stroke="#98CC6B" stroke-width="22.75" stroke-linecap="round" stroke-linejoin="round"/>
<path d="M186.721 162.231C181.879 171.851 189.449 182.663 200.145 181.403C218.147 179.282 232.62 169.148 240.77 152.957C245.612 143.337 238.041 132.525 227.346 133.785C209.344 135.907 194.871 146.041 186.721 162.231Z" stroke="#98CC6B" stroke-width="22.75" stroke-linecap="round" stroke-linejoin="round"/>
<path d="M171.502 217.445C172.762 228.141 161.95 235.711 152.33 230.869C136.139 222.719 126.005 208.246 123.884 190.244C122.624 179.549 133.436 171.978 143.056 176.82C159.246 184.97 169.38 199.443 171.502 217.445Z" stroke="#98CC6B" stroke-width="22.75" stroke-linecap="round" stroke-linejoin="round"/>
<path d="M176.82 218.383C171.978 228.002 179.548 238.814 190.244 237.554C208.246 235.433 222.719 225.299 230.869 209.108C235.711 199.489 228.14 188.677 217.445 189.937C199.443 192.058 184.97 202.192 176.82 218.383Z" stroke="#98CC6B" stroke-width="22.75" stroke-linecap="round" stroke-linejoin="round"/>
<path d="M189.001 105.358C192.708 115.47 181.357 123.418 173.123 116.476C168.38 112.478 164.774 107.327 162.639 101.503C158.932 91.3917 170.283 83.4438 178.517 90.3852C183.26 94.3832 186.866 99.5341 189.001 105.358Z" stroke="#98CC6B" stroke-width="22.75" stroke-linecap="round" stroke-linejoin="round"/>
<path d="M198.711 107.071C191.77 115.305 199.718 126.656 209.83 122.949C215.654 120.814 220.804 117.207 224.802 112.465C231.744 104.231 223.796 92.8798 213.684 96.5864C207.86 98.7213 202.709 102.328 198.711 107.071Z" stroke="#98CC6B" stroke-width="22.75" stroke-linecap="round" stroke-linejoin="round"/>
</g>
</svg>
